<svg version="1.1" xmlns="http://www.w3.org/2000/svg" xmlns:xlink="http://www.w3.org/1999/xlink" width="400" height="400" viewBox="0 0 400 400"><defs/><g><path fill="rgb(220,220,220)" stroke="rgb(0,0,0)" paint-order="fill stroke markers" d=" M 0 200 C 0 89.54305004000001 89.54305004000001 0 200 0 C 310.45694996 0 400 89.54305004000001 400 200 C 400 310.45694996 310.45694996 400 200 400 C 89.54305004000001 400 0 310.45694996 0 200" fill-opacity="1" stroke-opacity="1" stroke-linecap="round" stroke-miterlimit="10" stroke-width="4" stroke-dasharray=""/><g><path fill="none" stroke="none"/><path fill="rgb(180,180,180)" stroke="rgb(50,50,50)" paint-order="fill stroke markers" d=" M 119.1656882336274 134.86031394084608 L 170.78452468439247 246.70112625083704 L 170.78452468439247 246.70112625083704 A 10 10 0 0 1 165.8955126140054 259.971301870459 L 144.10448738599456 270.028698129541 L 144.10448738599456 270.028698129541 A 10 10 0 0 1 130.8343117663726 265.1396860591539 L 79.21547531560753 153.29887374916296 L 79.21547531560753 153.29887374916296 A 10 10 0 0 1 84.10448738599457 140.02869812954097 L 105.89551261400541 129.97130187045903 L 105.89551261400541 129.97130187045903 A 10 10 0 0 1 119.1656882336274 134.86031394084608 Z" fill-opacity="1" stroke-opacity="1" stroke-linecap="round" stroke-miterlimit="10" stroke-width="4" stroke-dasharray=""/></g><g><path fill="none" stroke="none"/><path fill="rgb(180,180,180)" stroke="rgb(50,50,50)" paint-order="fill stroke markers" d=" M 148.5981560033552 241.69728785221292 L 253.2337304114077 154.5009758455025 L 253.2337304114077 154.5009758455025 A 10 10 0 0 1 267.3177872040263 155.78134464483145 L 282.6822127959738 174.2186553551685 L 282.6822127959738 174.2186553551685 A 10 10 0 0 1 281.4018439966448 188.30271214778705 L 176.7662695885923 275.4990241544975 L 176.7662695885923 275.4990241544975 A 10 10 0 0 1 162.68221279597375 274.2186553551685 L 147.31778720402625 255.78134464483148 L 147.31778720402625 255.7813446448315 A 10 10 0 0 1 148.5981560033552 241.69728785221292 Z" fill-opacity="1" stroke-opacity="1" stroke-linecap="round" stroke-miterlimit="10" stroke-width="4" stroke-dasharray=""/></g><path fill="rgb(150,150,150)" stroke="rgb(50,50,50)" paint-order="fill stroke markers" d=" M 67.5 135 C 67.5 119.8121693805 79.8121693805 107.5 95 107.5 C 110.1878306195 107.5 122.5 119.8121693805 122.5 135 C 122.5 150.1878306195 110.1878306195 162.5 95 162.5 C 79.8121693805 162.5 67.5 150.1878306195 67.5 135" fill-opacity="1" stroke-opacity="1" stroke-linecap="round" stroke-miterlimit="10" stroke-width="4" stroke-dasharray=""/><path fill="rgb(120,120,120)" stroke="rgb(50,50,50)" paint-order="fill stroke markers" d=" M 130 265 C 130 251.192881255 141.192881255 240 155 240 C 168.807118745 240 180 251.192881255 180 265 C 180 278.807118745 168.807118745 290 155 290 C 141.192881255 290 130 278.807118745 130 265" fill-opacity="1" stroke-opacity="1" stroke-linecap="round" stroke-miterlimit="10" stroke-width="4" stroke-dasharray=""/><path fill="rgb(120,120,120)" stroke="rgb(50,50,50)" paint-order="fill stroke markers" d=" M 255 165 C 255 153.954305004 263.954305004 145 275 145 C 286.045694996 145 295 153.954305004 295 165 C 295 176.045694996 286.045694996 185 275 185 C 263.954305004 185 255 176.045694996 255 165" fill-opacity="1" stroke-opacity="1" stroke-linecap="round" stroke-miterlimit="10" stroke-width="4" stroke-dasharray=""/><g><path fill="none" stroke="none"/><path fill="rgb(180,180,180)" stroke="rgb(50,50,50)" paint-order="fill stroke markers" d=" M 280.1214751973158 124.28427218133908 L 299.3270071872502 108.27966218972708 L 299.3270071872502 108.27966218972708 A 15 15 0 0 1 320.45309237617806 110.20021538872052 L 337.09788676745455 130.1739686582523 L 337.09788676745455 130.1739686582523 A 15 15 0 0 1 335.1773335684611 151.30005384718012 L 315.9718015785267 167.30466383879212 L 315.9718015785267 167.30466383879212 A 15 15 0 0 1 294.84571638959886 165.38411063979868 L 278.2009219983224 145.41035737026692 L 278.2009219983224 145.41035737026692 A 15 15 0 0 1 280.1214751973158 124.28427218133908 Z" fill-opacity="1" stroke-opacity="1" stroke-linecap="round" stroke-miterlimit="10" stroke-width="4" stroke-dasharray=""/><path fill="none" stroke="none"/><path fill="rgb(150,150,150)" stroke="rgb(50,50,50)" paint-order="fill stroke markers" d=" M 310.8503263812109 106.48714587066654 L 322.3736455751715 96.88437987569934 L 322.3736455751715 96.88437987569934 A 5 5 0 0 1 329.41567397148077 97.52456427536382 L 331.97641157013874 100.59744939375332 L 331.97641157013874 100.59744939375332 A 5 5 0 0 1 331.3362271704742 107.6394777900626 L 319.8129079765136 117.2422437850298 L 319.8129079765136 117.2422437850298 A 5 5 0 0 1 312.77087958020434 116.60205938536532 L 310.21014198154637 113.52917426697582 L 310.21014198154637 113.52917426697582 A 5 5 0 0 1 310.8503263812109 106.48714587066654 Z" fill-opacity="1" stroke-opacity="1" stroke-linecap="round" stroke-miterlimit="10" stroke-width="3" stroke-dasharray=""/><path fill="none" stroke="none"/><path fill="rgb(150,150,150)" stroke="rgb(50,50,50)" paint-order="fill stroke markers" d=" M 321.0932767758426 118.77868634422455 L 332.6165959698032 109.17592034925735 L 332.6165959698032 109.17592034925735 A 5 5 0 0 1 339.65862436611246 109.81610474892183 L 342.2193619647704 112.88898986731134 L 342.2193619647704 112.88898986731134 A 5 5 0 0 1 341.5791775651059 119.93101826362062 L 330.0558583711453 129.53378425858781 L 330.0558583711453 129.53378425858781 A 5 5 0 0 1 323.01382997483597 128.89359985892332 L 320.45309237617806 125.82071474053383 L 320.45309237617806 125.82071474053383 A 5 5 0 0 1 321.0932767758426 118.77868634422455 Z" fill-opacity="1" stroke-opacity="1" stroke-linecap="round" stroke-miterlimit="10" stroke-width="3" stroke-dasharray=""/><path fill="none" stroke="none"/><path fill="rgb(150,150,150)" stroke="rgb(50,50,50)" paint-order="fill stroke markers" d=" M 331.3362271704742 131.07022681778255 L 342.8595463644349 121.46746082281537 L 342.8595463644349 121.46746082281537 A 5 5 0 0 1 349.90157476074415 122.10764522247985 L 352.46231235940206 125.18053034086935 L 352.46231235940206 125.18053034086935 A 5 5 0 0 1 351.8221279597376 132.22255873717864 L 340.2988087657769 141.82532473214582 L 340.2988087657769 141.82532473214582 A 5 5 0 0 1 333.25678036946766 141.18514033248135 L 330.69604277080975 138.11225521409185 L 330.69604277080975 138.11225521409185 A 5 5 0 0 1 331.3362271704742 131.07022681778255 Z" fill-opacity="1" stroke-opacity="1" stroke-linecap="round" stroke-miterlimit="10" stroke-width="3" stroke-dasharray=""/></g><path fill="rgb(80,80,80)" stroke="none" paint-order="stroke fill markers" d=" M 89 135 C 89 131.6862915012 91.6862915012 129 95 129 C 98.3137084988 129 101 131.6862915012 101 135 C 101 138.3137084988 98.3137084988 141 95 141 C 91.6862915012 141 89 138.3137084988 89 135" fill-opacity="1"/><path fill="rgb(80,80,80)" stroke="none" paint-order="stroke fill markers" d=" M 149 265 C 149 261.6862915012 151.6862915012 259 155 259 C 158.3137084988 259 161 261.6862915012 161 265 C 161 268.3137084988 158.3137084988 271 155 271 C 151.6862915012 271 149 268.3137084988 149 265" fill-opacity="1"/><path fill="rgb(80,80,80)" stroke="none" paint-order="stroke fill markers" d=" M 270 165 C 270 162.238576251 272.238576251 160 275 160 C 277.761423749 160 280 162.238576251 280 165 C 280 167.761423749 277.761423749 170 275 170 C 272.238576251 170 270 167.761423749 270 165" fill-opacity="1"/></g></svg>